<svg data-v-fde0c5aa="" xmlns="http://www.w3.org/2000/svg" viewBox="0 100 300 100" class="iconLeftSlogan" style="
"><g data-v-fde0c5aa="" id="4e753c62-3217-49ee-85aa-88d4d621420b" fill="#fff" transform="matrix(3.4194799120307224,0,0,3.4194799120307224,125.9221916016566,110.3018171596774)"><path d="M0.03 12.19C0.67 13.08 1.55 13.57 2.56 13.57C4.19 13.57 5.11 12.56 5.11 10.72L5.11 3.77L4.52 3.77L4.52 10.71C4.52 12.17 3.82 12.96 2.56 12.96C1.72 12.96 0.94 12.53 0.35 11.73ZM8.23 13.55L14.73 13.55L14.73 12.98L8.82 12.98L8.82 8.83L13.92 8.83L13.92 8.25L8.82 8.25L8.82 4.34L14.55 4.34L14.55 3.77L8.23 3.77ZM16.44 10.96C16.44 12.46 17.67 13.57 19.19 13.57C20.31 13.57 21.38 12.95 22.30 11.87C22.85 12.40 23.44 12.99 24.07 13.62L24.39 13.27L22.60 11.49C23.04 10.91 23.45 10.21 23.80 9.41L23.37 9.09C23.03 9.87 22.65 10.56 22.23 11.13C21.10 10.01 20.17 9.07 19.50 8.26C20.75 7.60 21.99 6.92 21.99 5.60C21.99 4.51 21.17 3.75 19.92 3.75C18.61 3.75 17.70 4.61 17.70 5.74C17.70 6.47 18.07 7.22 18.77 8.13C17.58 8.76 16.44 9.51 16.44 10.96ZM16.95 10.93C16.95 9.76 17.96 9.10 19.07 8.50C19.78 9.35 20.76 10.33 21.94 11.51C21.11 12.50 20.19 13.06 19.21 13.06C17.96 13.06 16.95 12.18 16.95 10.93ZM18.20 5.74C18.20 4.89 18.89 4.20 19.94 4.20C20.89 4.20 21.49 4.76 21.49 5.60C21.49 6.72 20.38 7.29 19.21 7.91C18.55 7.07 18.20 6.37 18.20 5.74ZM24.51 12.19C25.16 13.08 26.04 13.57 27.05 13.57C28.67 13.57 29.60 12.56 29.60 10.72L29.60 3.77L29.01 3.77L29.01 10.71C29.01 12.17 28.31 12.96 27.05 12.96C26.21 12.96 25.42 12.53 24.84 11.73ZM32.72 13.55L39.21 13.55L39.21 12.98L33.31 12.98L33.31 8.83L38.40 8.83L38.40 8.25L33.31 8.25L33.31 4.34L39.03 4.34L39.03 3.77L32.72 3.77Z"></path></g><defs data-v-fde0c5aa=""><!----></defs><g data-v-fde0c5aa="" id="758a5628-52bb-40c2-ab61-cc9b07a2d7bc" stroke="none" fill="#fff" transform="matrix(2.282024250096683,0,0,2.282024250096683,35.89235591456439,108.92356349825971)"><switch><g><path d="M30.8 16.7c.5 0 1-.4 1-1v-2.2c1.2-.4 2-1.5 2-2.8 0-1.7-1.3-3-3-3s-3 1.3-3 3c0 1.3.8 2.4 2 2.8v1.2h-6V13c0-.5-.5-1-1-1h-.3V7.8c1.2-.4 2-1.5 2-2.8 0-1.6-1.3-3-3-3s-3 1.4-3 3c0 1.3.8 2.4 2 2.8V12h-4V6.1c0-.6-.4-1-1-1h-4.2c-.4-1.2-1.5-2-2.8-2-1.6 0-3 1.4-3 3 0 1.7 1.4 3 3 3 1.3 0 2.4-.8 2.8-2h3.2V12h-1.7c-.5 0-1 .5-1 1v3.5h-6v-.3c1.2-.4 2-1.5 2-2.8 0-1.6-1.3-3-3-3s-3 1.4-3 3c0 1.3.8 2.4 2 2.8v1.3c0 .5.5 1 1 1h7V22H7.6c-.4-1.2-1.5-2-2.8-2-1.7 0-3 1.4-3 3 0 1.7 1.3 3 3 3 1.3 0 2.4-.8 2.8-2h6.9v4.9h-3.2c-.4-1.2-1.5-2-2.8-2-1.6 0-3 1.3-3 3s1.4 3 3 3c1.3 0 2.4-.8 2.8-2h4.2c.6 0 1-.4 1-1V24h4v4.2c-1.2.4-2 1.5-2 2.8 0 1.7 1.3 3 3 3s3-1.3 3-3c0-1.3-.8-2.4-2-2.8V24h.3c.5 0 1-.4 1-1v-1.9h4.9v5.1c-1.2.4-2 1.5-2 2.8 0 1.7 1.3 3 3 3s3-1.3 3-3c0-1.3-.8-2.4-2-2.8v-6.1c0-.6-.5-1-1-1h-5.9v-2.4h7zm0-7c.5 0 1 .5 1 1 0 .6-.5 1-1 1s-1-.4-1-1 .4-1 1-1zM8.5 7.1c-.5 0-1-.4-1-1s.5-1 1-1c.6 0 1 .4 1 1s-.5 1-1 1zm-3.7 7.2c-.5 0-1-.4-1-1s.5-1 1-1 1 .4 1 1-.5 1-1 1zm0 9.7c-.5 0-1-.4-1-1 0-.5.5-1 1-1s1 .5 1 1-.5 1-1 1zm3.7 6.9c-.5 0-1-.4-1-1 0-.5.5-1 1-1 .6 0 1 .5 1 1 0 .6-.5 1-1 1zm5.3-8.9v-8h8v8h-8zm7.7 10c-.5 0-1-.4-1-1 0-.5.5-1 1-1 .6 0 1 .5 1 1s-.5 1-1 1zm0-26c-.5 0-1-.4-1-1 0-.5.5-1 1-1 .6 0 1 .5 1 1s-.5 1-1 1zm8.2 22c.5 0 1 .5 1 1 0 .6-.5 1-1 1-.6 0-1-.4-1-1 0-.5.4-1 1-1z"></path></g></switch></g><g data-v-fde0c5aa="" id="855dbda2-eaae-4622-959c-2f15d048f5c3" fill="#fff" transform="matrix(0.5713960507451402,0,0,0.5713960507451402,125.84192925391343,163.623889608772)"><path d="M1.33 6.34L0.32 6.14L0.35 5.89L3.25 5.89L3.22 6.14L2.07 6.32L4.44 13.30L7.01 6.34L5.74 6.14L5.76 5.89L8.43 5.89L8.40 6.14L7.52 6.32L4.50 14.47L4.16 14.57L1.33 6.34ZM17.35 6.36L16.13 6.18L16.17 5.89L22.37 5.89L22.16 8.07L21.84 8.03L21.71 6.24L18.06 6.24L18.06 9.89L20.35 9.89L20.60 8.94L20.97 8.89L20.75 11.55L20.40 11.61L20.29 10.26L18.06 10.26L18.06 14.03L21.90 14.03L22.41 12.19L22.69 12.26L22.48 14.40L16.15 14.40L16.19 14.11L17.35 13.90L17.35 6.36ZM32.22 6.18L32.22 10.11L33.77 10.11L33.77 10.11Q34.45 9.86 34.91 9.28L34.91 9.28L34.91 9.28Q35.37 8.70 35.37 8.02L35.37 8.02L35.37 8.02Q35.37 7.11 34.75 6.63L34.75 6.63L34.75 6.63Q34.13 6.15 33.04 6.15L33.04 6.15L32.22 6.18ZM33.59 14.40L30.40 14.40L30.45 14.11L31.51 13.90L31.51 6.51L30.42 6.37L30.48 6.13L30.48 6.13Q32.31 5.83 33.39 5.83L33.39 5.83L33.39 5.83Q34.15 5.83 34.76 6.05L34.76 6.05L34.76 6.05Q35.37 6.27 35.75 6.73L35.75 6.73L35.75 6.73Q36.12 7.19 36.12 7.83L36.12 7.83L36.12 7.83Q36.12 8.57 35.69 9.14L35.69 9.14L35.69 9.14Q35.27 9.72 34.23 10.23L34.23 10.23L34.23 10.23L35.55 12.19L35.55 12.19Q36.26 13.23 36.61 13.58L36.61 13.58L36.61 13.58Q36.96 13.92 37.34 14.05L37.34 14.05L37.67 14.16L37.63 14.42L37.63 14.42Q37.33 14.52 36.99 14.52L36.99 14.52L36.99 14.52Q36.70 14.52 36.45 14.40L36.45 14.40L36.45 14.40Q36.20 14.28 35.95 14.01L35.95 14.01L35.95 14.01Q35.71 13.75 35.53 13.48L35.53 13.48L35.53 13.48Q35.34 13.22 35.07 12.77L35.07 12.77L33.68 10.49L32.22 10.49L32.22 13.95L33.66 14.08L33.59 14.40ZM45.36 13.60L45.36 13.60L45.57 11.66L45.90 11.71L46.09 13.21L46.09 13.21Q46.31 13.64 46.84 13.89L46.84 13.89L46.84 13.89Q47.37 14.14 47.97 14.14L47.97 14.14L47.97 14.14Q48.66 14.14 49.14 13.74L49.14 13.74L49.14 13.74Q49.62 13.33 49.62 12.61L49.62 12.61L49.62 12.61Q49.62 12.20 49.40 11.83L49.40 11.83L49.40 11.83Q49.18 11.46 48.84 11.18L48.84 11.18L48.84 11.18Q48.49 10.90 48.07 10.63L48.07 10.63L48.07 10.63Q47.65 10.36 47.24 10.07L47.24 10.07L47.24 10.07Q46.82 9.79 46.47 9.48L46.47 9.48L46.47 9.48Q46.13 9.17 45.91 8.75L45.91 8.75L45.91 8.75Q45.70 8.33 45.70 7.84L45.70 7.84L45.70 7.84Q45.70 6.88 46.39 6.29L46.39 6.29L46.39 6.29Q47.09 5.71 47.97 5.71L47.97 5.71L47.97 5.71Q48.56 5.71 49.10 5.90L49.10 5.90L49.10 5.90Q49.64 6.09 49.96 6.46L49.96 6.46L49.74 8.58L49.42 8.53L49.24 6.87L49.24 6.87Q49.05 6.54 48.64 6.32L48.64 6.32L48.64 6.32Q48.22 6.10 47.79 6.10L47.79 6.10L47.79 6.10Q47.20 6.10 46.78 6.48L46.78 6.48L46.78 6.48Q46.37 6.87 46.37 7.52L46.37 7.52L46.37 7.52Q46.37 7.96 46.59 8.35L46.59 8.35L46.59 8.35Q46.81 8.74 47.16 9.03L47.16 9.03L47.16 9.03Q47.52 9.32 47.94 9.61L47.94 9.61L47.94 9.61Q48.36 9.89 48.79 10.17L48.79 10.17L48.79 10.17Q49.22 10.45 49.57 10.75L49.57 10.75L49.57 10.75Q49.92 11.05 50.15 11.45L50.15 11.45L50.15 11.45Q50.37 11.85 50.37 12.29L50.37 12.29L50.37 12.29Q50.37 13.28 49.62 13.93L49.62 13.93L49.62 13.93Q48.86 14.57 47.62 14.57L47.62 14.57L47.62 14.57Q46.91 14.57 46.31 14.30L46.31 14.30L46.31 14.30Q45.71 14.03 45.36 13.60ZM59.29 6.33L58.06 6.16L58.08 5.89L61.19 5.89L61.16 6.16L60.01 6.32L60.01 11.01L60.01 11.01Q60.01 11.87 60.19 12.49L60.19 12.49L60.19 12.49Q60.37 13.10 60.72 13.45L60.72 13.45L60.72 13.45Q61.07 13.79 61.51 13.95L61.51 13.95L61.51 13.95Q61.96 14.11 62.55 14.11L62.55 14.11L62.55 14.11Q63.72 14.11 64.37 13.40L64.37 13.40L64.37 13.40Q65.01 12.68 65.01 11.33L65.01 11.33L65.01 6.33L63.74 6.16L63.77 5.89L66.68 5.89L66.62 6.16L65.49 6.32L65.47 11.05L65.47 11.05Q65.46 12.78 64.72 13.68L64.72 13.68L64.72 13.68Q63.98 14.58 62.32 14.58L62.32 14.58L62.32 14.58Q61.82 14.58 61.40 14.49L61.40 14.49L61.40 14.49Q60.98 14.40 60.58 14.16L60.58 14.16L60.58 14.16Q60.18 13.93 59.91 13.56L59.91 13.56L59.91 13.56Q59.63 13.19 59.46 12.60L59.46 12.60L59.46 12.60Q59.29 12.01 59.29 11.24L59.29 11.24L59.29 6.33ZM74.37 13.60L74.37 13.60L74.57 11.66L74.90 11.71L75.09 13.21L75.09 13.21Q75.32 13.64 75.85 13.89L75.85 13.89L75.85 13.89Q76.38 14.14 76.98 14.14L76.98 14.14L76.98 14.14Q77.66 14.14 78.14 13.74L78.14 13.74L78.14 13.74Q78.62 13.33 78.62 12.61L78.62 12.61L78.62 12.61Q78.62 12.20 78.40 11.83L78.40 11.83L78.40 11.83Q78.19 11.46 77.84 11.18L77.84 11.18L77.84 11.18Q77.50 10.90 77.08 10.63L77.08 10.63L77.08 10.63Q76.66 10.36 76.24 10.07L76.24 10.07L76.24 10.07Q75.82 9.79 75.48 9.48L75.48 9.48L75.48 9.48Q75.13 9.17 74.92 8.75L74.92 8.75L74.92 8.75Q74.70 8.33 74.70 7.84L74.70 7.84L74.70 7.84Q74.70 6.88 75.40 6.29L75.40 6.29L75.40 6.29Q76.09 5.71 76.97 5.71L76.97 5.71L76.97 5.71Q77.56 5.71 78.10 5.90L78.10 5.90L78.10 5.90Q78.64 6.09 78.97 6.46L78.97 6.46L78.74 8.58L78.43 8.53L78.24 6.87L78.24 6.87Q78.06 6.54 77.64 6.32L77.64 6.32L77.64 6.32Q77.23 6.10 76.79 6.10L76.79 6.10L76.79 6.10Q76.20 6.10 75.79 6.48L75.79 6.48L75.79 6.48Q75.37 6.87 75.37 7.52L75.37 7.52L75.37 7.52Q75.37 7.96 75.60 8.35L75.60 8.35L75.60 8.35Q75.82 8.74 76.17 9.03L76.17 9.03L76.17 9.03Q76.52 9.32 76.95 9.61L76.95 9.61L76.95 9.61Q77.37 9.89 77.80 10.17L77.80 10.17L77.80 10.17Q78.22 10.45 78.58 10.75L78.58 10.75L78.58 10.75Q78.93 11.05 79.15 11.45L79.15 11.45L79.15 11.45Q79.37 11.85 79.37 12.29L79.37 12.29L79.37 12.29Q79.37 13.28 78.62 13.93L78.62 13.93L78.62 13.93Q77.87 14.57 76.62 14.57L76.62 14.57L76.62 14.57Q75.91 14.57 75.31 14.30L75.31 14.30L75.31 14.30Q74.71 14.03 74.37 13.60ZM98.21 6.36L97.00 6.18L97.05 5.89L103.24 5.89L103.02 8.09L102.68 8.04L102.54 6.24L98.92 6.24L98.92 10.07L101.19 10.07L101.46 9.11L101.84 9.06L101.63 11.72L101.25 11.77L101.13 10.43L98.92 10.43L98.92 13.92L100.60 14.03L100.52 14.40L97.03 14.40L97.05 14.11L98.21 13.90L98.21 6.36ZM112.77 6.18L112.77 10.11L114.32 10.11L114.32 10.11Q115.01 9.86 115.47 9.28L115.47 9.28L115.47 9.28Q115.92 8.70 115.92 8.02L115.92 8.02L115.92 8.02Q115.92 7.11 115.31 6.63L115.31 6.63L115.31 6.63Q114.69 6.15 113.60 6.15L113.60 6.15L112.77 6.18ZM114.15 14.40L110.95 14.40L111.00 14.11L112.07 13.90L112.07 6.51L110.97 6.37L111.04 6.13L111.04 6.13Q112.86 5.83 113.94 5.83L113.94 5.83L113.94 5.83Q114.71 5.83 115.32 6.05L115.32 6.05L115.32 6.05Q115.92 6.27 116.30 6.73L116.30 6.73L116.30 6.73Q116.68 7.19 116.68 7.83L116.68 7.83L116.68 7.83Q116.68 8.57 116.25 9.14L116.25 9.14L116.25 9.14Q115.82 9.72 114.79 10.23L114.79 10.23L114.79 10.23L116.11 12.19L116.11 12.19Q116.82 13.23 117.16 13.58L117.16 13.58L117.16 13.58Q117.51 13.92 117.89 14.05L117.89 14.05L118.22 14.16L118.18 14.42L118.18 14.42Q117.89 14.52 117.54 14.52L117.54 14.52L117.54 14.52Q117.26 14.52 117.00 14.40L117.00 14.40L117.00 14.40Q116.75 14.28 116.51 14.01L116.51 14.01L116.51 14.01Q116.27 13.75 116.08 13.48L116.08 13.48L116.08 13.48Q115.90 13.22 115.62 12.77L115.62 12.77L114.24 10.49L112.77 10.49L112.77 13.95L114.21 14.08L114.15 14.40ZM126.69 9.75L126.69 9.75L126.69 9.75Q126.69 11.03 127.05 12.01L127.05 12.01L127.05 12.01Q127.42 13.00 128.13 13.57L128.13 13.57L128.13 13.57Q128.85 14.14 129.83 14.14L129.83 14.14L129.83 14.14Q130.40 14.14 130.89 13.92L130.89 13.92L130.89 13.92Q131.39 13.70 131.73 13.33L131.73 13.33L131.73 13.33Q132.08 12.96 132.32 12.49L132.32 12.49L132.32 12.49Q132.56 12.01 132.68 11.50L132.68 11.50L132.68 11.50Q132.79 10.99 132.79 10.48L132.79 10.48L132.79 10.48Q132.79 8.50 131.94 7.29L131.94 7.29L131.94 7.29Q131.09 6.07 129.64 6.07L129.64 6.07L129.64 6.07Q129.06 6.07 128.57 6.28L128.57 6.28L128.57 6.28Q128.08 6.49 127.74 6.85L127.74 6.85L127.74 6.85Q127.39 7.21 127.16 7.69L127.16 7.69L127.16 7.69Q126.92 8.16 126.80 8.69L126.80 8.69L126.80 8.69Q126.69 9.21 126.69 9.75ZM125.94 10.16L125.94 10.16L125.94 10.16Q125.94 8.16 127.04 6.92L127.04 6.92L127.04 6.92Q128.13 5.69 129.97 5.69L129.97 5.69L129.97 5.69Q131.11 5.69 131.92 6.27L131.92 6.27L131.92 6.27Q132.74 6.86 133.14 7.84L133.14 7.84L133.14 7.84Q133.53 8.83 133.53 10.11L133.53 10.11L133.53 10.11Q133.53 10.75 133.38 11.38L133.38 11.38L133.38 11.38Q133.23 12.00 132.91 12.58L132.91 12.58L132.91 12.58Q132.58 13.17 132.12 13.61L132.12 13.61L132.12 13.61Q131.66 14.05 130.98 14.32L130.98 14.32L130.98 14.32Q130.31 14.58 129.50 14.58L129.50 14.58L129.50 14.58Q128.45 14.58 127.62 13.98L127.62 13.98L127.62 13.98Q126.80 13.37 126.37 12.37L126.37 12.37L126.37 12.37Q125.94 11.37 125.94 10.16ZM142.50 6.36L141.24 6.14L141.29 5.89L143.36 5.89L148.09 13.17L148.09 6.33L146.84 6.16L146.88 5.89L149.78 5.89L149.72 6.16L148.59 6.32L148.59 14.44L148.22 14.52L143.01 6.65L143.01 13.95L144.27 14.08L144.20 14.40L141.32 14.40L141.36 14.11L142.50 13.90L142.50 6.36ZM157.52 8.09L157.45 5.89L164.51 5.89L164.27 8.16L163.93 8.12L163.82 6.24L161.28 6.24L161.28 13.90L162.49 14.08L162.42 14.40L159.32 14.40L159.35 14.11L160.55 13.90L160.55 6.24L158.12 6.24L157.88 8.15L157.52 8.09ZM175.12 11.41L172.33 11.53L172.40 11.12L175.18 11.00L175.12 11.41ZM184.84 6.15L184.84 9.75L186.96 9.75L186.96 9.75Q187.41 9.45 187.75 9.01L187.75 9.01L187.75 9.01Q188.08 8.57 188.08 8.02L188.08 8.02L188.08 8.02Q188.08 7.08 187.44 6.59L187.44 6.59L187.44 6.59Q186.81 6.11 185.67 6.11L185.67 6.11L185.67 6.11Q185.02 6.11 184.84 6.15L184.84 6.15ZM184.84 10.08L184.84 14.03L186.52 14.03L186.52 14.03Q187.15 14.03 187.61 13.85L187.61 13.85L187.61 13.85Q188.07 13.68 188.31 13.38L188.31 13.38L188.31 13.38Q188.56 13.08 188.67 12.74L188.67 12.74L188.67 12.74Q188.77 12.41 188.77 12.02L188.77 12.02L188.77 12.02Q188.77 11.68 188.67 11.36L188.67 11.36L188.67 11.36Q188.56 11.04 188.32 10.74L188.32 10.74L188.32 10.74Q188.08 10.45 187.63 10.26L187.63 10.26L187.63 10.26Q187.19 10.08 186.59 10.08L186.59 10.08L184.84 10.08ZM185.84 14.40L182.94 14.40L182.99 14.11L184.15 13.90L184.15 6.51L182.97 6.36L183.04 6.12L183.04 6.12Q183.16 6.10 183.60 6.03L183.60 6.03L183.60 6.03Q184.04 5.96 184.21 5.94L184.21 5.94L184.21 5.94Q184.39 5.91 184.74 5.87L184.74 5.87L184.74 5.87Q185.10 5.83 185.41 5.82L185.41 5.82L185.41 5.82Q185.72 5.80 186.07 5.80L186.07 5.80L186.07 5.80Q187.35 5.80 188.07 6.38L188.07 6.38L188.07 6.38Q188.78 6.96 188.78 7.79L188.78 7.79L188.78 7.79Q188.78 8.98 187.37 9.76L187.37 9.76L187.37 9.80L187.37 9.80Q188.36 9.86 188.93 10.46L188.93 10.46L188.93 10.46Q189.50 11.05 189.50 11.80L189.50 11.80L189.50 11.80Q189.50 12.22 189.40 12.58L189.40 12.58L189.40 12.58Q189.29 12.95 189.03 13.29L189.03 13.29L189.03 13.29Q188.77 13.63 188.36 13.87L188.36 13.87L188.36 13.87Q187.96 14.11 187.31 14.25L187.31 14.25L187.31 14.25Q186.67 14.40 185.84 14.40L185.84 14.40ZM201.27 6.98L199.90 10.75L202.59 10.75L201.27 6.98ZM199.95 14.40L197.22 14.40L197.26 14.11L198.23 13.90L201.22 5.82L201.58 5.73L204.42 13.95L205.32 14.08L205.27 14.39L202.47 14.39L202.54 14.10L203.67 13.90L202.72 11.13L199.77 11.13L198.75 13.95L200.01 14.08L199.95 14.40ZM213.04 10.25L213.04 10.25L213.04 10.25Q213.04 9.73 213.15 9.21L213.15 9.21L213.15 9.21Q213.25 8.68 213.46 8.17L213.46 8.17L213.46 8.17Q213.66 7.66 213.99 7.22L213.99 7.22L213.99 7.22Q214.31 6.77 214.73 6.44L214.73 6.44L214.73 6.44Q215.14 6.10 215.70 5.90L215.70 5.90L215.70 5.90Q216.25 5.71 216.89 5.71L216.89 5.71L216.89 5.71Q218.31 5.71 219.21 6.39L219.21 6.39L219.00 8.70L218.68 8.64L218.48 6.87L218.48 6.87Q217.88 6.09 216.57 6.09L216.57 6.09L216.57 6.09Q215.42 6.09 214.59 7.19L214.59 7.19L214.59 7.19Q213.77 8.30 213.77 10.00L213.77 10.00L213.77 10.00Q213.77 11.92 214.57 12.97L214.57 12.97L214.57 12.97Q215.37 14.03 216.85 14.03L216.85 14.03L216.85 14.03Q217.58 14.03 218.27 13.65L218.27 13.65L218.27 13.65Q218.96 13.28 219.43 12.74L219.43 12.74L219.59 12.99L219.59 12.99Q219.42 13.25 219.13 13.51L219.13 13.51L219.13 13.51Q218.85 13.77 218.46 14.02L218.46 14.02L218.46 14.02Q218.07 14.27 217.57 14.42L217.57 14.42L217.57 14.42Q217.06 14.57 216.54 14.57L216.54 14.57L216.54 14.57Q214.96 14.57 214.00 13.40L214.00 13.40L214.00 13.40Q213.04 12.22 213.04 10.25ZM229.56 10.27L229.54 10.17L229.54 10.17Q230.19 9.47 230.55 9.04L230.55 9.04L232.81 6.33L231.63 6.16L231.66 5.89L234.44 5.89L234.42 6.16L233.37 6.32L230.25 10.10L232.05 12.20L232.05 12.20Q232.84 13.13 233.34 13.54L233.34 13.54L233.34 13.54Q233.84 13.94 234.42 14.03L234.42 14.03L234.79 14.08L234.71 14.38L234.71 14.38Q234.71 14.38 234.58 14.42L234.58 14.42L234.58 14.42Q234.45 14.46 234.40 14.48L234.40 14.48L234.40 14.48Q234.35 14.50 234.28 14.52L234.28 14.52L234.28 14.52Q234.21 14.53 234.14 14.54L234.14 14.54L234.14 14.54Q234.07 14.55 233.99 14.55L233.99 14.55L233.99 14.55Q233.66 14.55 233.36 14.43L233.36 14.43L233.36 14.43Q233.06 14.31 232.75 14.03L232.75 14.03L232.75 14.03Q232.44 13.75 232.22 13.51L232.22 13.51L232.22 13.51Q232.00 13.28 231.63 12.82L231.63 12.82L229.56 10.27ZM228.44 6.33L227.25 6.16L227.29 5.89L230.36 5.89L230.34 6.16L229.17 6.32L229.17 13.95L230.45 14.08L230.37 14.40L227.32 14.40L227.36 14.11L228.44 13.90L228.44 6.33Z"></path></g></svg>